# xmcd
#
# Track frame offsets:
#	225
#	13443
#	24004
#	37744
#	51995
#	64078
#	74920
#	87298
#	98148
#	110111
#	122936
#	134096
#	145695
#	155999
#	167970
#	183609
#	194077
#	204413
#	218900
#	230044
#	242482
#	254051
#	266217
#	275727
#
# Disc length: 3845 seconds
#
# Revision: 0
# Processed by: cddbd v1.5.2PL0 Copyright (c) Steve Scherf et al.
# Submitted via: audiograbber 1.83.01
#
DISCID=8c0f0218
DTITLE=Chet Atkins - From Nashville with Love and Solo Flights
DYEAR=2015
DGENRE=Country
TTITLE0=La Fiesta
TTITLE1=The Song from Moulin Rouge
TTITLE2=Something Tender
TTITLE3=Romance
TTITLE4=Drina
TTITLE5=Al Di La
TTITLE6=From Nashville with Love
TTITLE7=English Leather
TTITLE8=After the Tears
TTITLE9=Stranger on the Shore
TTITLE10=Soul Journey
TTITLE11=I Love Paris
TTITLE12=Drive In
TTITLE13=Three Liittle Words
TTITLE14=Autumn Leaves
TTITLE15=Chet's Tune
TTITLE16=Mercy, Mercy, Mercy
TTITLE17=Cheeck to Cheeck
TTITLE18=Cindy Oh Cindy
TTITLE19=When You Wish Upon a Star
TTITLE20=Music to Watch Girls By
TTITLE21=Choro da Saudade
TTITLE22=Gonna Get Along Without Ya Now
TTITLE23=Georgy Girl
EXTD=
EXTT0=
EXTT1=
EXTT2=
EXTT3=
EXTT4=
EXTT5=
EXTT6=
EXTT7=
EXTT8=
EXTT9=
EXTT10=
EXTT11=
EXTT12=
EXTT13=
EXTT14=
EXTT15=
EXTT16=
EXTT17=
EXTT18=
EXTT19=
EXTT20=
EXTT21=
EXTT22=
EXTT23=
PLAYORDER=
